<mxfile host="65bd71144e" scale="3" border="0">
    <diagram id="LzTGRrPrDBO6Tm46XuKC" name="Page-1">
        <mxGraphModel dx="2634" dy="2339" grid="0" gridSize="10" guides="1" tooltips="1" connect="1" arrows="1" fold="1" page="0" pageScale="1" pageWidth="1600" pageHeight="1200" math="0" shadow="0">
            <root>
                <mxCell id="0"/>
                <mxCell id="1" parent="0"/>
                <mxCell id="405" value="start integrity id&lt;div&gt;uint8_t&lt;/div&gt;" style="text;html=1;align=center;verticalAlign=middle;whiteSpace=wrap;rounded=0;strokeColor=default;fontSize=14;" parent="1" vertex="1">
                    <mxGeometry x="-903" y="-816.5" width="148" height="45" as="geometry"/>
                </mxCell>
                <mxCell id="410" value="&lt;span style=&quot;color: rgb(0, 0, 0);&quot;&gt;end integrty id&lt;/span&gt;&lt;div&gt;uint8_t&lt;/div&gt;" style="text;html=1;align=center;verticalAlign=middle;whiteSpace=wrap;rounded=0;strokeColor=default;fontSize=14;" parent="1" vertex="1">
                    <mxGeometry x="-107" y="-816.5" width="148" height="45" as="geometry"/>
                </mxCell>
                <mxCell id="411" value="&lt;span style=&quot;color: rgb(0, 0, 0);&quot;&gt;message code&lt;/span&gt;&lt;div&gt;uint8_t&lt;/div&gt;" style="text;html=1;align=center;verticalAlign=middle;whiteSpace=wrap;rounded=0;strokeColor=default;fontSize=14;" parent="1" vertex="1">
                    <mxGeometry x="-755" y="-816.5" width="148" height="45" as="geometry"/>
                </mxCell>
                <mxCell id="412" value="&lt;span style=&quot;color: rgb(0, 0, 0);&quot;&gt;message data&lt;/span&gt;&lt;div&gt;uint8_t [8]&lt;/div&gt;" style="text;html=1;align=center;verticalAlign=middle;whiteSpace=wrap;rounded=0;strokeColor=default;fontSize=14;" parent="1" vertex="1">
                    <mxGeometry x="-607" y="-816.5" width="500" height="45" as="geometry"/>
                </mxCell>
            </root>
        </mxGraphModel>
    </diagram>
</mxfile>